<svg width="118" height="35" viewBox="0 0 118 35" fill="none" xmlns="http://www.w3.org/2000/svg">
<g filter="url(#filter0_d_101_229)">
<mask id="path-1-outside-1_101_229" maskUnits="userSpaceOnUse" x="107" y="9" width="9" height="6" fill="black">
<rect fill="white" x="107" y="9" width="9" height="6"/>
<path d="M108.83 14V11.4683H108.046V10.908H110.245V11.4683H109.473V14H108.83ZM110.564 14V10.908H111.186L112.344 12.4436H112.054L113.179 10.908H113.801V14H113.158V11.6177L113.415 11.6758L112.224 13.2114H112.141L110.991 11.6758L111.207 11.6177V14H110.564Z"/>
</mask>
<path d="M108.83 14V11.4683H108.046V10.908H110.245V11.4683H109.473V14H108.83ZM110.564 14V10.908H111.186L112.344 12.4436H112.054L113.179 10.908H113.801V14H113.158V11.6177L113.415 11.6758L112.224 13.2114H112.141L110.991 11.6758L111.207 11.6177V14H110.564Z" fill="black"/>
<path d="M108.83 14H107.83V15H108.83V14ZM108.83 11.4683H109.83V10.4683H108.83V11.4683ZM108.046 11.4683H107.046V12.4683H108.046V11.4683ZM108.046 10.908V9.90797H107.046V10.908H108.046ZM110.245 10.908H111.245V9.90797H110.245V10.908ZM110.245 11.4683V12.4683H111.245V11.4683H110.245ZM109.473 11.4683V10.4683H108.473V11.4683H109.473ZM109.473 14V15H110.473V14H109.473ZM109.83 14V11.4683H107.83V14H109.83ZM108.83 10.4683H108.046V12.4683H108.83V10.4683ZM109.046 11.4683V10.908H107.046V11.4683H109.046ZM108.046 11.908H110.245V9.90797H108.046V11.908ZM109.245 10.908V11.4683H111.245V10.908H109.245ZM110.245 10.4683H109.473V12.4683H110.245V10.4683ZM108.473 11.4683V14H110.473V11.4683H108.473ZM109.473 13H108.83V15H109.473V13ZM110.564 14H109.564V15H110.564V14ZM110.564 10.908V9.90797H109.564V10.908H110.564ZM111.186 10.908L111.985 10.3059L111.685 9.90797H111.186V10.908ZM112.344 12.4436V13.4436H114.351L113.143 11.8415L112.344 12.4436ZM112.054 12.4436L111.247 11.8527L110.082 13.4436H112.054V12.4436ZM113.179 10.908V9.90797H112.672L112.372 10.3171L113.179 10.908ZM113.801 10.908H114.801V9.90797H113.801V10.908ZM113.801 14V15H114.801V14H113.801ZM113.158 14H112.158V15H113.158V14ZM113.158 11.6177L113.378 10.6422L112.158 10.3667V11.6177H113.158ZM113.415 11.6758L114.205 12.2887L115.169 11.0466L113.635 10.7003L113.415 11.6758ZM112.224 13.2114V14.2114H112.714L113.014 13.8243L112.224 13.2114ZM112.141 13.2114L111.341 13.8107L111.641 14.2114H112.141V13.2114ZM110.991 11.6758L110.731 10.7102L109.307 11.0938L110.191 12.2751L110.991 11.6758ZM111.207 11.6177H112.207V10.3128L110.947 10.6521L111.207 11.6177ZM111.207 14V15H112.207V14H111.207ZM111.564 14V10.908H109.564V14H111.564ZM110.564 11.908H111.186V9.90797H110.564V11.908ZM110.388 11.51L111.546 13.0457L113.143 11.8415L111.985 10.3059L110.388 11.51ZM112.344 11.4436H112.054V13.4436H112.344V11.4436ZM112.861 13.0345L113.985 11.4989L112.372 10.3171L111.247 11.8527L112.861 13.0345ZM113.179 11.908H113.801V9.90797H113.179V11.908ZM112.801 10.908V14H114.801V10.908H112.801ZM113.801 13H113.158V15H113.801V13ZM114.158 14V11.6177H112.158V14H114.158ZM112.938 12.5931L113.195 12.6512L113.635 10.7003L113.378 10.6422L112.938 12.5931ZM112.625 11.0629L111.434 12.5985L113.014 13.8243L114.205 12.2887L112.625 11.0629ZM112.224 12.2114H112.141V14.2114H112.224V12.2114ZM112.942 12.6121L111.792 11.0765L110.191 12.2751L111.341 13.8107L112.942 12.6121ZM111.251 12.6414L111.467 12.5833L110.947 10.6521L110.731 10.7102L111.251 12.6414ZM110.207 11.6177V14H112.207V11.6177H110.207ZM111.207 13H110.564V15H111.207V13Z" fill="black" mask="url(#path-1-outside-1_101_229)"/>
</g>
<path d="M46.5863 28.1301C47.6222 28.1301 48.5386 27.9408 49.3355 27.5623C50.1324 27.1639 50.74 26.5662 51.1583 25.7693V27.7715H55.3419V11.4555H50.8595V20.9881C50.8595 21.9244 50.5806 22.6815 50.0228 23.2592C49.465 23.817 48.7478 24.0959 47.8713 24.0959C46.9947 24.0959 46.2775 23.817 45.7197 23.2592C45.1619 22.6815 44.883 21.9244 44.883 20.9881V11.4555H40.4006V21.3467C40.4006 23.3787 40.9285 25.0223 41.9844 26.2773C43.0601 27.5125 44.5941 28.1301 46.5863 28.1301Z" fill="black"/>
<path d="M58.6181 9.99127H63.1005V5.50886H58.6181V9.99127ZM58.6181 27.7715H63.1005V11.4555H58.6181V27.7715Z" fill="black"/>
<path d="M68.3528 27.7715H72.8352V15.3403H76.3315V11.4555H72.8352V11.2165C72.8352 9.76217 73.6819 9.03502 75.3752 9.03502C75.6542 9.03502 75.9829 9.0649 76.3614 9.12467V5.29968C75.9032 5.20007 75.3752 5.15027 74.7776 5.15027C72.7456 5.15027 71.1618 5.6782 70.0262 6.73405C68.9106 7.78991 68.3528 9.28404 68.3528 11.2165V11.4555H65.6036V15.3403H68.3528V27.7715Z" fill="black"/>
<path d="M78.6371 27.7715H83.1195V18.986C83.1195 17.7707 83.4582 16.8344 84.1355 16.177C84.8129 15.4996 85.6994 15.161 86.7951 15.161H88.1996V11.2762H87.2433C86.2473 11.2762 85.3607 11.4655 84.5838 11.844C83.8268 12.2026 83.2391 12.8899 82.8207 13.9059V11.4555H78.6371V27.7715Z" fill="black"/>
<path d="M92.7042 34.4054C95.6924 34.4054 97.854 32.7021 99.1887 29.2955L106.181 11.4555H101.37L97.5153 21.9443L93.6604 11.4555H88.8493L95.2741 27.7715L94.9753 28.4588C94.7362 28.9967 94.4274 29.4748 94.0489 29.8932C93.6704 30.3115 93.0428 30.5207 92.1663 30.5207C91.4491 30.5207 90.7718 30.4211 90.1343 30.2219V33.8974C90.4729 34.0767 90.8614 34.2062 91.2997 34.2859C91.7579 34.3656 92.2261 34.4054 92.7042 34.4054Z" fill="black"/>
<path d="M26.3829 10.8852C26.1564 10.6651 25.8387 10.5651 25.5277 10.6163C25.2162 10.6672 24.9472 10.8628 24.8027 11.1434C24.3057 12.1089 23.6745 12.9961 22.9318 13.7805C23.0058 13.2139 23.0431 12.6439 23.0431 12.0724C23.0431 10.9759 22.8961 9.84742 22.6061 8.71805C21.6527 5.00853 19.1525 1.87144 15.7468 0.111205C15.4503 -0.0419942 15.097 -0.0366153 14.8053 0.125549C14.5136 0.287779 14.3226 0.585213 14.2964 0.917908C14.0309 4.28895 12.2945 7.35586 9.52981 9.33424C9.49322 9.3606 9.4569 9.38729 9.42057 9.41386C9.34534 9.46891 9.27441 9.52097 9.20814 9.56467C9.19778 9.57157 9.18749 9.57861 9.17739 9.58585C7.43861 10.8308 6.00391 12.4903 5.0282 14.3854C4.03675 16.3131 3.53406 18.3818 3.53406 20.5336C3.53406 21.6299 3.68101 22.7583 3.97088 23.8879C5.50055 29.8417 10.8585 33.9999 17.0004 33.9999C24.4253 33.9999 30.4659 27.9589 30.4659 20.5336C30.4659 16.872 29.0159 13.4454 26.3829 10.8852Z" fill="#FF5555"/>
<circle cx="16" cy="20" r="4" fill="white"/>
<defs>
<filter id="filter0_d_101_229" x="104.046" y="10.908" width="13.7556" height="11.092" filterUnits="userSpaceOnUse" color-interpolation-filters="sRGB">
<feFlood flood-opacity="0" result="BackgroundImageFix"/>
<feColorMatrix in="SourceAlpha" type="matrix" values="0 0 0 0 0 0 0 0 0 0 0 0 0 0 0 0 0 0 127 0" result="hardAlpha"/>
<feOffset dy="4"/>
<feGaussianBlur stdDeviation="2"/>
<feComposite in2="hardAlpha" operator="out"/>
<feColorMatrix type="matrix" values="0 0 0 0 0 0 0 0 0 0 0 0 0 0 0 0 0 0 0.25 0"/>
<feBlend mode="normal" in2="BackgroundImageFix" result="effect1_dropShadow_101_229"/>
<feBlend mode="normal" in="SourceGraphic" in2="effect1_dropShadow_101_229" result="shape"/>
</filter>
</defs>
</svg>
